<svg width="18" height="4" viewBox="0 0 18 4" fill="none" xmlns="http://www.w3.org/2000/svg">
<path d="M2.50008 0.166664C1.48716 0.166664 0.666748 0.987081 0.666748 2C0.666748 3.01291 1.48716 3.83333 2.50008 3.83333C3.513 3.83333 4.33341 3.01291 4.33341 2C4.33341 0.987081 3.513 0.166664 2.50008 0.166664ZM15.5001 0.166664C14.4872 0.166664 13.6667 0.987081 13.6667 2C13.6667 3.01291 14.4872 3.83333 15.5001 3.83333C16.513 3.83333 17.3334 3.01291 17.3334 2C17.3334 0.987081 16.513 0.166664 15.5001 0.166664ZM9.00008 0.166664C7.98716 0.166664 7.16675 0.987081 7.16675 2C7.16675 3.01291 7.98716 3.83333 9.00008 3.83333C10.013 3.83333 10.8334 3.01291 10.8334 2C10.8334 0.987081 10.013 0.166664 9.00008 0.166664Z" fill="#929EAE"/>
</svg>
