<svg width="354" height="247" viewBox="0 0 354 247" fill="none" xmlns="http://www.w3.org/2000/svg">
<rect y="37" width="354" height="210" rx="15" fill="url(#paint0_linear_3210_373)"/>
<path d="M42.704 62.728H42.72V71H45.28V58.472H41.84L38.352 66.872L34.8 58.472H31.456V71H34V62.792H34.016L37.488 71H39.216L42.704 62.728ZM50.2864 71.16C51.4224 71.16 52.2704 70.744 52.8464 69.928L52.8784 69.944V71H55.1824V65.704C55.1824 63.464 53.7264 62.264 51.4704 62.264C49.5984 62.264 48.2864 62.936 47.5504 64.296L49.4544 65.432C49.8864 64.664 50.5104 64.28 51.3584 64.28C52.2544 64.28 52.7344 64.744 52.7344 65.336C52.7344 65.752 52.5104 65.96 52.0624 65.96H51.2144C50.2544 65.96 49.4544 66.104 48.6704 66.472C47.9024 66.84 47.4064 67.576 47.4064 68.584V68.616C47.4064 69.384 47.6784 70.008 48.2384 70.472C48.7984 70.936 49.4864 71.16 50.2864 71.16ZM51.0064 69.336C50.3664 69.336 49.9184 69.048 49.9184 68.472C49.9184 67.832 50.4944 67.496 51.2144 67.496H52.7184V67.688C52.7184 68.632 52.0784 69.336 51.0064 69.336ZM57.066 72.824C57.834 74.456 59.274 75.272 61.386 75.272C62.746 75.272 63.85 74.904 64.698 74.152C65.562 73.4 65.994 72.36 65.994 71.032V62.456H63.546V63.496H63.514C62.858 62.712 61.994 62.328 60.922 62.328C59.738 62.328 58.762 62.76 58.01 63.64C57.258 64.504 56.89 65.512 56.89 66.648C56.89 67.864 57.274 68.888 58.042 69.704C58.81 70.52 59.802 70.936 61.018 70.936C62.074 70.936 62.89 70.552 63.482 69.8H63.514V71.096C63.514 72.424 62.666 73.096 61.37 73.096C60.33 73.096 59.578 72.616 59.098 71.656L57.066 72.824ZM63.578 66.648C63.578 67.912 62.666 68.76 61.498 68.76C60.298 68.76 59.418 67.912 59.418 66.648C59.418 65.416 60.33 64.552 61.498 64.552C62.698 64.552 63.578 65.416 63.578 66.648ZM70.8203 57.96H68.3083V71H70.8203V57.96ZM72.5928 66.744C72.5928 68.024 73.0408 69.08 73.9368 69.928C74.8328 70.776 75.9368 71.192 77.2488 71.192C78.5448 71.192 79.6488 70.76 80.5608 69.912C81.4728 69.048 81.9208 67.976 81.9208 66.696C81.9208 65.432 81.4728 64.392 80.5768 63.544C79.6808 62.696 78.5768 62.264 77.2808 62.264C75.9848 62.264 74.8648 62.696 73.9528 63.56C73.0408 64.408 72.5928 65.48 72.5928 66.744ZM75.1528 66.712C75.1528 66.088 75.3608 65.56 75.7608 65.16C76.1608 64.744 76.6568 64.536 77.2488 64.536C77.8408 64.536 78.3528 64.744 78.7528 65.16C79.1528 65.56 79.3608 66.088 79.3608 66.712C79.3608 67.992 78.4648 68.904 77.2648 68.904C76.6727 68.904 76.1608 68.696 75.7608 68.296C75.3608 67.88 75.1528 67.352 75.1528 66.712ZM85.0589 71.192C85.5389 71.192 85.9389 71.016 86.2749 70.68C86.6109 70.344 86.7869 69.928 86.7869 69.464C86.7869 68.504 86.0189 67.72 85.0589 67.72C84.0989 67.72 83.3309 68.504 83.3309 69.464C83.3309 69.928 83.5069 70.344 83.8429 70.68C84.1789 71.016 84.5949 71.192 85.0589 71.192Z" fill="white"/>
<path d="M111.924 60.604V66.412C111.924 67.792 111.108 68.728 109.752 68.728C108.456 68.728 107.568 67.816 107.568 66.364V60.604H106.092V66.424C106.092 67.516 106.404 68.416 107.016 69.1C107.628 69.784 108.54 70.12 109.728 70.12C110.916 70.12 111.828 69.784 112.452 69.1C113.088 68.416 113.4 67.492 113.4 66.352V60.604H111.924ZM121.2 70V66.052C121.2 64.516 120.372 63.46 118.8 63.46C117.984 63.46 117.336 63.796 116.844 64.456V63.592H115.452V70H116.88V66.436C116.88 65.464 117.456 64.816 118.356 64.816C119.304 64.816 119.772 65.452 119.772 66.412V70H121.2ZM123.094 62.176C123.466 62.548 124.042 62.548 124.414 62.176C124.786 61.804 124.786 61.228 124.414 60.856C124.042 60.472 123.466 60.472 123.094 60.856C122.722 61.228 122.722 61.804 123.094 62.176ZM124.474 63.592H123.046V70H124.474V63.592ZM125.63 63.592L128.342 70H129.77L132.446 63.592H130.946L129.062 68.332L127.178 63.592H125.63ZM139.286 67.216C139.298 67.108 139.31 66.964 139.31 66.772C139.31 65.776 139.034 64.984 138.482 64.372C137.93 63.76 137.162 63.46 136.19 63.46C135.266 63.46 134.498 63.784 133.886 64.432C133.274 65.08 132.962 65.86 132.962 66.784C132.962 67.732 133.286 68.536 133.922 69.172C134.57 69.808 135.374 70.12 136.322 70.12C137.474 70.12 138.518 69.568 139.058 68.572L138.026 67.888C137.678 68.548 137.102 68.884 136.298 68.884C135.806 68.884 135.374 68.728 135.002 68.416C134.63 68.092 134.438 67.696 134.426 67.216H139.286ZM136.19 64.684C137.102 64.684 137.81 65.236 137.858 66.136H134.498C134.63 65.26 135.314 64.684 136.19 64.684ZM144.28 63.568C144.196 63.544 144.088 63.532 143.932 63.532C143.152 63.532 142.564 63.892 142.168 64.612V63.592H140.776V70H142.204V66.748C142.204 65.632 142.78 64.996 143.872 64.996C144.028 64.996 144.16 65.008 144.28 65.032V63.568ZM147.563 70.108C148.283 70.108 148.871 69.928 149.315 69.556C149.759 69.184 149.987 68.704 149.987 68.116C149.987 67.12 149.219 66.424 147.767 66.1C146.939 65.92 146.579 65.704 146.579 65.284C146.579 64.936 147.035 64.66 147.479 64.66C148.091 64.66 148.535 64.948 148.823 65.524L149.927 64.9C149.483 63.94 148.679 63.46 147.527 63.46C146.903 63.46 146.363 63.64 145.895 64.012C145.427 64.384 145.199 64.852 145.199 65.428C145.199 65.884 145.355 66.268 145.655 66.592C146.003 66.964 146.543 67.216 147.251 67.36C148.127 67.54 148.571 67.828 148.571 68.2C148.571 68.632 148.103 68.908 147.563 68.908C146.879 68.908 146.375 68.56 146.027 67.876L144.911 68.5C145.403 69.568 146.291 70.108 147.563 70.108ZM155.171 65.656C155.171 66.016 154.967 66.196 154.571 66.196H153.779C152.651 66.196 151.115 66.664 151.115 68.152V68.224C151.115 68.776 151.319 69.232 151.727 69.58C152.135 69.928 152.651 70.108 153.275 70.108C154.139 70.108 154.763 69.784 155.159 69.124V70H156.563V65.92C156.563 65.476 156.491 65.092 156.347 64.768C155.951 63.892 155.147 63.46 153.947 63.46C152.639 63.46 151.727 64 151.223 65.092L152.315 65.716C152.639 65.032 153.179 64.696 153.911 64.696C154.715 64.696 155.171 65.128 155.171 65.656ZM155.159 67.408C155.159 68.368 154.535 68.968 153.563 68.968C152.951 68.968 152.543 68.62 152.543 68.092C152.543 67.816 152.675 67.6 152.927 67.444C153.191 67.288 153.479 67.204 153.779 67.204H155.159V67.408ZM158.413 70H159.841V60.232H158.413V70ZM165.157 70H168.865C171.037 70 172.201 68.956 172.201 67.372C172.201 66.916 172.069 66.472 171.793 66.052C171.517 65.632 171.061 65.308 170.413 65.104C171.097 64.804 171.541 64.156 171.673 63.724C171.733 63.496 171.769 63.28 171.769 63.076C171.769 62.308 171.493 61.708 170.941 61.264C170.389 60.82 169.657 60.604 168.745 60.604H165.157V70ZM166.621 61.936H168.553C169.753 61.936 170.293 62.452 170.293 63.232C170.293 64.012 169.681 64.576 168.469 64.576H166.621V61.936ZM166.621 65.872H168.793C170.089 65.872 170.725 66.436 170.725 67.252C170.725 68.104 170.077 68.668 168.889 68.668H166.621V65.872ZM177.39 65.656C177.39 66.016 177.186 66.196 176.79 66.196H175.998C174.87 66.196 173.334 66.664 173.334 68.152V68.224C173.334 68.776 173.538 69.232 173.946 69.58C174.354 69.928 174.87 70.108 175.494 70.108C176.358 70.108 176.982 69.784 177.378 69.124V70H178.782V65.92C178.782 65.476 178.71 65.092 178.566 64.768C178.17 63.892 177.366 63.46 176.166 63.46C174.858 63.46 173.946 64 173.442 65.092L174.534 65.716C174.858 65.032 175.398 64.696 176.13 64.696C176.934 64.696 177.39 65.128 177.39 65.656ZM177.378 67.408C177.378 68.368 176.754 68.968 175.782 68.968C175.17 68.968 174.762 68.62 174.762 68.092C174.762 67.816 174.894 67.6 175.146 67.444C175.41 67.288 175.698 67.204 175.998 67.204H177.378V67.408ZM186.38 70V66.052C186.38 64.516 185.552 63.46 183.98 63.46C183.164 63.46 182.516 63.796 182.024 64.456V63.592H180.632V70H182.06V66.436C182.06 65.464 182.636 64.816 183.536 64.816C184.484 64.816 184.952 65.452 184.952 66.412V70H186.38ZM188.226 70H189.654V66.868H189.69L192.366 70H194.25L191.202 66.496L194.094 63.592H192.15L189.666 66.112H189.654V60.232H188.226V70Z" fill="#626260"/>
<rect x="96" y="57" width="1" height="20" fill="#626261"/>
<path d="M64.259 134.872L33.7923 135C31.7737 135.012 30.1051 133.355 30.0934 131.336L30.0001 108.827C29.9884 106.809 31.6453 105.14 33.664 105.128L64.1306 105C66.1493 104.988 67.8179 106.645 67.8295 108.664L67.9229 131.173C67.9346 133.203 66.2776 134.872 64.259 134.872Z" fill="#B2AEA9"/>
<path d="M44.6565 130.974C44.4931 130.974 44.3414 130.893 44.2597 130.741C44.143 130.531 44.2364 130.262 44.4464 130.146C45.0765 129.819 45.94 129.201 46.4301 128.15C47.0602 126.809 46.8852 125.35 46.6168 125.233C46.5468 125.198 46.2901 125.338 46.1267 125.42C45.7183 125.63 45.1465 125.922 44.4814 125.7C43.828 125.478 43.5129 124.907 43.3613 124.627C42.3578 122.818 42.031 118.092 43.0695 115.735C43.4196 114.953 43.8863 114.487 44.4698 114.347C45.0649 114.207 45.5549 114.452 45.9517 114.65C46.2784 114.813 46.4418 114.883 46.5351 114.825C46.9435 114.58 46.9318 113.075 46.3484 111.884C45.8467 110.834 44.9832 110.228 44.3414 109.901C44.1314 109.796 44.038 109.527 44.1547 109.317C44.2597 109.107 44.5281 109.014 44.7381 109.131C45.4966 109.516 46.5234 110.239 47.1302 111.511C47.737 112.771 48.0287 114.942 46.9785 115.583C46.4534 115.91 45.94 115.653 45.5433 115.443C45.2399 115.292 44.9482 115.14 44.6681 115.21C44.2831 115.303 44.0147 115.747 43.863 116.097C42.9529 118.15 43.2329 122.62 44.1197 124.206C44.2714 124.475 44.4464 124.767 44.7615 124.872C45.0532 124.977 45.3332 124.848 45.73 124.638C46.115 124.44 46.5468 124.218 47.0018 124.44C47.982 124.907 47.9237 127.019 47.2236 128.524C46.6285 129.807 45.6016 130.531 44.8432 130.928C44.7965 130.963 44.7265 130.974 44.6565 130.974Z" fill="#3D3D3C"/>
<path d="M43.2801 116.529L35.3921 116.564C35.1471 116.564 34.9487 116.365 34.9487 116.132C34.9487 115.887 35.1471 115.689 35.3805 115.689L43.2684 115.654C43.5135 115.654 43.7118 115.852 43.7118 116.085C43.7235 116.33 43.5251 116.529 43.2801 116.529Z" fill="#3D3D3C"/>
<path d="M43.3145 124.417L35.4266 124.452C35.1815 124.452 34.9832 124.253 34.9832 124.02C34.9832 123.775 35.1815 123.577 35.4149 123.577L43.3028 123.542C43.5479 123.542 43.7462 123.74 43.7462 123.973C43.7462 124.207 43.5595 124.417 43.3145 124.417Z" fill="#3D3D3C"/>
<path d="M53.8508 130.94C53.7808 130.94 53.7108 130.928 53.6524 130.893C52.894 130.508 51.8671 129.784 51.2604 128.513C50.5369 127.019 50.4669 124.907 51.4471 124.429C51.9021 124.207 52.3339 124.429 52.7189 124.615C53.1157 124.814 53.3957 124.942 53.6874 124.837C54.0142 124.72 54.2008 124.37 54.3175 124.16C55.181 122.562 55.426 118.092 54.5042 116.05C54.3409 115.7 54.0725 115.257 53.6874 115.175C53.4541 115.117 53.3024 114.884 53.3607 114.65C53.419 114.417 53.6524 114.265 53.8858 114.324C54.4692 114.464 54.9476 114.919 55.2977 115.7C56.3595 118.046 56.0678 122.772 55.0877 124.592C54.936 124.872 54.6209 125.455 53.9791 125.677C53.314 125.91 52.7423 125.619 52.3339 125.409C52.1705 125.327 51.9021 125.199 51.8438 125.222C51.5754 125.35 51.4237 126.809 52.0655 128.139C52.5672 129.189 53.4307 129.796 54.0725 130.123C54.2825 130.228 54.3759 130.496 54.2592 130.706C54.1658 130.846 54.0142 130.94 53.8508 130.94Z" fill="#3D3D3C"/>
<path d="M52.0313 114.743C51.8446 114.743 51.6813 114.627 51.6112 114.44C50.6661 111.628 52.8481 109.446 53.5599 109.084C53.7699 108.967 54.0383 109.061 54.155 109.271C54.2717 109.481 54.1783 109.749 53.9683 109.866C53.6532 110.029 51.6463 111.768 52.4514 114.16C52.5331 114.393 52.4047 114.638 52.1713 114.72C52.1247 114.732 52.078 114.743 52.0313 114.743Z" fill="#3D3D3C"/>
<path d="M62.9883 116.447L55.1004 116.482C54.8554 116.482 54.657 116.284 54.657 116.05C54.657 115.805 54.8554 115.607 55.0887 115.607L62.9767 115.572C63.2217 115.572 63.4201 115.77 63.4201 116.004C63.4317 116.249 63.2334 116.447 62.9883 116.447Z" fill="#3D3D3C"/>
<path d="M63.0228 124.335L55.1348 124.37C54.8898 124.37 54.6914 124.171 54.6914 123.938C54.6914 123.693 54.8898 123.495 55.1231 123.495L63.0111 123.46C63.2561 123.46 63.4545 123.658 63.4545 123.891C63.4662 124.136 63.2678 124.335 63.0228 124.335Z" fill="#3D3D3C"/>
<path d="M306.227 108.751C310.93 114.664 310.93 122.35 306.227 128.263M311.157 104.75C317.787 113.082 317.787 123.918 311.157 132.25M301.056 111.336C304.512 115.668 304.512 121.319 301.056 125.65M295.871 114.925C297.599 117.097 297.599 119.916 295.871 122.089" stroke="#363B41" stroke-width="2" stroke-linecap="round" stroke-linejoin="round"/>
<path d="M40.421 167.546C40.421 166.203 40.013 165.149 39.197 164.418C38.398 163.67 37.378 163.296 36.154 163.296C35.287 163.296 34.488 163.585 33.757 164.18L34.182 161.188H39.826V158.689H31.989L31.02 165.438L33.604 166.492C34.148 165.965 34.76 165.71 35.423 165.71C36.8 165.71 37.65 166.475 37.65 167.614C37.65 168.838 36.766 169.586 35.525 169.586C34.352 169.586 33.519 169.11 33.009 168.158L30.663 169.552C31.564 171.286 33.162 172.153 35.457 172.153C36.885 172.153 38.075 171.745 39.01 170.912C39.945 170.079 40.421 168.957 40.421 167.546ZM49.9951 169.365V172H52.6811V169.348H54.5681V166.883H52.6811V158.689H49.4001L43.4331 166.662V169.365H49.9951ZM49.9951 161.919V166.883H46.2891L49.9951 161.919ZM64.901 165.982C64.85 167.036 64.595 167.903 64.102 168.6C63.609 169.297 62.878 169.637 61.909 169.637C61.059 169.637 60.243 169.331 59.461 168.719L58.033 170.844C59.172 171.728 60.464 172.17 61.909 172.17C63.813 172.17 65.258 171.524 66.244 170.215C67.247 168.906 67.74 167.155 67.74 164.979C67.74 162.888 67.366 161.358 66.601 160.372C65.768 159.284 64.357 158.502 62.521 158.502C61.212 158.502 60.056 158.927 59.053 159.777C58.05 160.61 57.557 161.732 57.557 163.126C57.557 164.299 57.965 165.319 58.781 166.152C59.597 166.985 60.634 167.393 61.909 167.393C63.116 167.393 64.102 166.917 64.901 165.982ZM64.833 163.058C64.833 163.67 64.612 164.163 64.153 164.537C63.694 164.894 63.167 165.081 62.555 165.081C61.246 165.081 60.328 164.265 60.328 163.041C60.328 162.48 60.549 161.987 60.974 161.596C61.416 161.188 61.943 160.984 62.555 160.984C63.15 160.984 63.677 161.188 64.136 161.596C64.595 162.004 64.833 162.497 64.833 163.058ZM80.7163 167.546C80.7163 166.203 80.3083 165.149 79.4923 164.418C78.6933 163.67 77.6733 163.296 76.4493 163.296C75.5823 163.296 74.7833 163.585 74.0523 164.18L74.4773 161.188H80.1213V158.689H72.2843L71.3153 165.438L73.8993 166.492C74.4433 165.965 75.0553 165.71 75.7183 165.71C77.0953 165.71 77.9453 166.475 77.9453 167.614C77.9453 168.838 77.0613 169.586 75.8203 169.586C74.6473 169.586 73.8143 169.11 73.3043 168.158L70.9583 169.552C71.8593 171.286 73.4573 172.153 75.7523 172.153C77.1803 172.153 78.3703 171.745 79.3053 170.912C80.2403 170.079 80.7163 168.957 80.7163 167.546ZM102.258 161.188L96.4436 172H99.5376L105.42 161.052V158.689H95.6616V161.188H102.258ZM117.963 168.175C117.963 166.696 117.368 165.744 115.889 165.132V165.115C117.096 164.469 117.708 163.534 117.708 162.31C117.708 161.171 117.283 160.236 116.433 159.539C115.583 158.842 114.478 158.485 113.118 158.485C110.891 158.485 109.123 159.522 108.375 161.358L110.84 162.531C111.299 161.545 112.013 161.052 113.016 161.052C114.223 161.052 114.937 161.664 114.937 162.497C114.937 163.381 114.24 163.993 113.067 163.993H111.809V166.543H113.22C114.444 166.543 115.175 167.104 115.175 168.107C115.175 169.042 114.393 169.654 113.22 169.654C112.013 169.654 111.044 169.093 110.585 168.124L108.171 169.365C108.97 171.218 110.823 172.204 113.152 172.204C114.529 172.204 115.668 171.83 116.586 171.065C117.504 170.3 117.963 169.331 117.963 168.175ZM131.31 168.243C131.31 166.798 130.528 165.761 128.981 165.098V165.081C130.222 164.588 131.038 163.466 131.038 162.123C131.038 161.086 130.613 160.219 129.746 159.522C128.879 158.825 127.757 158.485 126.346 158.485C124.935 158.485 123.796 158.825 122.929 159.522C122.062 160.219 121.637 161.086 121.637 162.123C121.637 163.466 122.453 164.588 123.694 165.081V165.098C122.147 165.778 121.365 166.849 121.365 168.294C121.365 169.433 121.841 170.368 122.793 171.099C123.745 171.813 124.918 172.17 126.329 172.17C127.74 172.17 128.93 171.813 129.882 171.099C130.834 170.385 131.31 169.433 131.31 168.243ZM128.284 162.463C128.284 163.466 127.366 164.112 126.329 164.112C125.309 164.112 124.391 163.449 124.391 162.446C124.391 161.511 125.19 160.797 126.329 160.797C127.502 160.797 128.284 161.511 128.284 162.463ZM128.539 168.073C128.539 169.093 127.672 169.858 126.312 169.858C125.02 169.858 124.136 169.076 124.136 168.073C124.136 167.036 125.173 166.424 126.346 166.424C126.924 166.424 127.434 166.577 127.876 166.866C128.318 167.155 128.539 167.546 128.539 168.073ZM137.949 161.97V172H140.703V158.689H138.442L133.92 161.341L135.144 163.568L137.949 161.97ZM166.29 168.175C166.29 166.696 165.695 165.744 164.216 165.132V165.115C165.423 164.469 166.035 163.534 166.035 162.31C166.035 161.171 165.61 160.236 164.76 159.539C163.91 158.842 162.805 158.485 161.445 158.485C159.218 158.485 157.45 159.522 156.702 161.358L159.167 162.531C159.626 161.545 160.34 161.052 161.343 161.052C162.55 161.052 163.264 161.664 163.264 162.497C163.264 163.381 162.567 163.993 161.394 163.993H160.136V166.543H161.547C162.771 166.543 163.502 167.104 163.502 168.107C163.502 169.042 162.72 169.654 161.547 169.654C160.34 169.654 159.371 169.093 158.912 168.124L156.498 169.365C157.297 171.218 159.15 172.204 161.479 172.204C162.856 172.204 163.995 171.83 164.913 171.065C165.831 170.3 166.29 169.331 166.29 168.175ZM175.965 161.188L170.151 172H173.245L179.127 161.052V158.689H169.369V161.188H175.965ZM191.505 167.546C191.505 166.203 191.097 165.149 190.281 164.418C189.482 163.67 188.462 163.296 187.238 163.296C186.371 163.296 185.572 163.585 184.841 164.18L185.266 161.188H190.91V158.689H183.073L182.104 165.438L184.688 166.492C185.232 165.965 185.844 165.71 186.507 165.71C187.884 165.71 188.734 166.475 188.734 167.614C188.734 168.838 187.85 169.586 186.609 169.586C185.436 169.586 184.603 169.11 184.093 168.158L181.747 169.552C182.648 171.286 184.246 172.153 186.541 172.153C187.969 172.153 189.159 171.745 190.094 170.912C191.029 170.079 191.505 168.957 191.505 167.546ZM202.116 165.982C202.065 167.036 201.81 167.903 201.317 168.6C200.824 169.297 200.093 169.637 199.124 169.637C198.274 169.637 197.458 169.331 196.676 168.719L195.248 170.844C196.387 171.728 197.679 172.17 199.124 172.17C201.028 172.17 202.473 171.524 203.459 170.215C204.462 168.906 204.955 167.155 204.955 164.979C204.955 162.888 204.581 161.358 203.816 160.372C202.983 159.284 201.572 158.502 199.736 158.502C198.427 158.502 197.271 158.927 196.268 159.777C195.265 160.61 194.772 161.732 194.772 163.126C194.772 164.299 195.18 165.319 195.996 166.152C196.812 166.985 197.849 167.393 199.124 167.393C200.331 167.393 201.317 166.917 202.116 165.982ZM202.048 163.058C202.048 163.67 201.827 164.163 201.368 164.537C200.909 164.894 200.382 165.081 199.77 165.081C198.461 165.081 197.543 164.265 197.543 163.041C197.543 162.48 197.764 161.987 198.189 161.596C198.631 161.188 199.158 160.984 199.77 160.984C200.365 160.984 200.892 161.188 201.351 161.596C201.81 162.004 202.048 162.497 202.048 163.058ZM220.243 172H229.984V169.484H224.238L226.482 167.699C227.757 166.696 228.658 165.863 229.151 165.2C229.661 164.537 229.916 163.738 229.916 162.786C229.916 161.562 229.491 160.542 228.624 159.726C227.757 158.893 226.618 158.485 225.19 158.485C224.051 158.485 223.031 158.757 222.13 159.301C221.246 159.828 220.651 160.627 220.328 161.664L222.861 162.735C223.303 161.63 224.068 161.069 225.173 161.069C226.261 161.069 227.077 161.851 227.077 162.803C227.077 163.296 226.924 163.738 226.601 164.146C226.278 164.554 225.717 165.098 224.884 165.778L220.243 169.586V172ZM243.002 168.175C243.002 166.696 242.407 165.744 240.928 165.132V165.115C242.135 164.469 242.747 163.534 242.747 162.31C242.747 161.171 242.322 160.236 241.472 159.539C240.622 158.842 239.517 158.485 238.157 158.485C235.93 158.485 234.162 159.522 233.414 161.358L235.879 162.531C236.338 161.545 237.052 161.052 238.055 161.052C239.262 161.052 239.976 161.664 239.976 162.497C239.976 163.381 239.279 163.993 238.106 163.993H236.848V166.543H238.259C239.483 166.543 240.214 167.104 240.214 168.107C240.214 169.042 239.432 169.654 238.259 169.654C237.052 169.654 236.083 169.093 235.624 168.124L233.21 169.365C234.009 171.218 235.862 172.204 238.191 172.204C239.568 172.204 240.707 171.83 241.625 171.065C242.543 170.3 243.002 169.331 243.002 168.175ZM246.354 172H256.095V169.484H250.349L252.593 167.699C253.868 166.696 254.769 165.863 255.262 165.2C255.772 164.537 256.027 163.738 256.027 162.786C256.027 161.562 255.602 160.542 254.735 159.726C253.868 158.893 252.729 158.485 251.301 158.485C250.162 158.485 249.142 158.757 248.241 159.301C247.357 159.828 246.762 160.627 246.439 161.664L248.972 162.735C249.414 161.63 250.179 161.069 251.284 161.069C252.372 161.069 253.188 161.851 253.188 162.803C253.188 163.296 253.035 163.738 252.712 164.146C252.389 164.554 251.828 165.098 250.995 165.778L246.354 169.586V172ZM262.806 161.97V172H265.56V158.689H263.299L258.777 161.341L260.001 163.568L262.806 161.97Z" fill="white"/>
<path d="M30.742 196.512C30.742 198.122 31.162 199.452 32.016 200.53C32.87 201.594 33.976 202.126 35.334 202.126C36.692 202.126 37.812 201.594 38.666 200.516C39.52 199.438 39.954 198.094 39.954 196.484C39.954 194.888 39.534 193.558 38.68 192.494C37.826 191.416 36.72 190.884 35.362 190.884C34.004 190.884 32.898 191.43 32.03 192.508C31.176 193.586 30.742 194.916 30.742 196.512ZM38.176 196.512C38.176 197.646 37.924 198.612 37.406 199.382C36.888 200.152 36.216 200.544 35.362 200.544C34.508 200.544 33.822 200.152 33.304 199.368C32.786 198.584 32.534 197.618 32.534 196.484C32.534 195.35 32.786 194.398 33.29 193.628C33.808 192.858 34.48 192.466 35.334 192.466C36.188 192.466 36.874 192.858 37.392 193.642C37.91 194.426 38.176 195.378 38.176 196.512ZM46.6274 191.038L41.4054 197.842V199.578H47.0474V202H48.7414V199.578H50.3654V198.024H48.7414V191.038H46.6274ZM47.0474 192.984V198.024H43.1694L47.0474 192.984ZM53.3322 202.07L58.3442 190.59H56.6782L51.6662 202.07H53.3322ZM59.7308 202H67.4448V200.446H62.1668L64.7148 198.332C65.6808 197.534 66.3668 196.848 66.7728 196.274C67.1788 195.686 67.3888 194.986 67.3888 194.188C67.3888 193.208 67.0388 192.41 66.3388 191.808C65.6388 191.192 64.7428 190.884 63.6648 190.884C62.7268 190.884 61.9148 191.122 61.2288 191.612C60.5568 192.102 60.1088 192.746 59.8848 193.544L61.4248 194.188C61.8588 193.04 62.6008 192.466 63.6508 192.466C64.8688 192.466 65.6108 193.264 65.6108 194.314C65.6108 194.804 65.4708 195.238 65.1908 195.63C64.9108 196.008 64.3928 196.526 63.6508 197.156L59.7308 200.502V202ZM74.1959 191.038L68.9739 197.842V199.578H74.6159V202H76.3099V199.578H77.9339V198.024H76.3099V191.038H74.1959ZM74.6159 192.984V198.024H70.7379L74.6159 192.984Z" fill="#868685"/>
<path fill-rule="evenodd" clip-rule="evenodd" d="M295.277 223.095V225V226.904H294.438V226.442C294.172 226.785 293.769 227 293.22 227C292.139 227 291.291 226.164 291.291 225C291.291 223.837 292.139 223 293.22 223C293.769 223 294.172 223.215 294.438 223.558V223.095H295.277ZM293.325 223.78C292.599 223.78 292.155 224.33 292.155 225C292.155 225.669 292.599 226.219 293.325 226.219C294.018 226.219 294.486 225.693 294.486 225C294.486 224.307 294.018 223.78 293.325 223.78ZM323.613 225C323.613 224.33 324.057 223.78 324.783 223.78C325.477 223.78 325.944 224.307 325.944 225C325.944 225.693 325.477 226.219 324.783 226.219C324.057 226.219 323.613 225.669 323.613 225ZM326.736 221.566V225V226.904H325.896V226.442C325.63 226.785 325.227 227 324.678 227C323.597 227 322.749 226.164 322.749 225C322.749 223.837 323.597 223 324.678 223C325.227 223 325.63 223.215 325.896 223.558V221.566H326.736ZM305.685 223.741C306.225 223.741 306.573 224.076 306.661 224.665H304.66C304.75 224.115 305.088 223.741 305.685 223.741ZM303.781 225C303.781 223.812 304.572 223 305.702 223C306.782 223 307.525 223.812 307.533 225C307.533 225.111 307.525 225.215 307.516 225.318H304.653C304.774 226.004 305.266 226.251 305.806 226.251C306.193 226.251 306.605 226.107 306.928 225.853L307.339 226.466C306.871 226.857 306.339 227 305.758 227C304.604 227 303.781 226.211 303.781 225ZM315.827 225C315.827 224.33 316.271 223.78 316.997 223.78C317.69 223.78 318.159 224.307 318.159 225C318.159 225.693 317.69 226.219 316.997 226.219C316.271 226.219 315.827 225.669 315.827 225ZM318.949 223.095V225V226.904H318.111V226.442C317.844 226.785 317.441 227 316.892 227C315.811 227 314.963 226.164 314.963 225C314.963 223.837 315.811 223 316.892 223C317.441 223 317.844 223.215 318.111 223.558V223.095H318.949ZM311.091 225C311.091 226.155 311.906 227 313.149 227C313.73 227 314.116 226.872 314.536 226.546L314.133 225.876C313.818 226.1 313.488 226.219 313.124 226.219C312.454 226.211 311.962 225.733 311.962 225C311.962 224.267 312.454 223.789 313.124 223.78C313.488 223.78 313.818 223.9 314.133 224.123L314.536 223.454C314.116 223.127 313.73 223 313.149 223C311.906 223 311.091 223.844 311.091 225ZM320.885 223.558C321.103 223.223 321.418 223 321.902 223C322.072 223 322.314 223.032 322.5 223.104L322.241 223.884C322.064 223.812 321.886 223.789 321.717 223.789C321.168 223.789 320.894 224.139 320.894 224.769V226.904H320.054V223.096H320.885V223.558ZM299.424 223.398C299.02 223.136 298.465 223 297.851 223C296.874 223 296.245 223.462 296.245 224.219C296.245 224.84 296.714 225.223 297.576 225.343L297.972 225.398C298.432 225.462 298.649 225.582 298.649 225.797C298.649 226.092 298.343 226.259 297.77 226.259C297.189 226.259 296.77 226.076 296.487 225.861L296.092 226.506C296.552 226.84 297.133 227 297.762 227C298.875 227 299.521 226.482 299.521 225.757C299.521 225.087 299.013 224.737 298.174 224.618L297.778 224.561C297.415 224.514 297.125 224.443 297.125 224.187C297.125 223.908 297.399 223.741 297.859 223.741C298.351 223.741 298.827 223.925 299.061 224.068L299.424 223.398ZM309.228 223.558C309.445 223.223 309.76 223 310.243 223C310.413 223 310.655 223.032 310.841 223.104L310.582 223.884C310.405 223.812 310.228 223.789 310.058 223.789C309.509 223.789 309.235 224.139 309.235 224.769V226.904H308.397V223.096H309.228V223.558ZM303.087 223.095H301.716V221.94H300.868V223.095H300.086V223.853H300.868V225.59C300.868 226.474 301.215 227 302.207 227C302.571 227 302.99 226.889 303.256 226.705L303.014 225.996C302.764 226.139 302.49 226.211 302.272 226.211C301.853 226.211 301.716 225.956 301.716 225.574V223.853H303.087V223.095ZM290.549 224.514V226.904H289.702V224.785C289.702 224.139 289.427 223.78 288.855 223.78C288.298 223.78 287.911 224.132 287.911 224.793V226.904H287.063V224.785C287.063 224.139 286.782 223.78 286.225 223.78C285.651 223.78 285.28 224.132 285.28 224.793V226.904H284.433V223.096H285.273V223.565C285.588 223.119 285.99 223 286.402 223C286.991 223 287.411 223.255 287.677 223.677C288.032 223.143 288.54 222.992 289.032 223C289.969 223.008 290.549 223.614 290.549 224.514Z" fill="white"/>
<path d="M311.855 216.624H299.146V194.067H311.855V216.624Z" fill="#FF5F00"/>
<path d="M299.952 205.346C299.952 200.77 302.121 196.694 305.5 194.067C303.029 192.146 299.912 191 296.523 191C288.502 191 282 197.423 282 205.346C282 213.269 288.502 219.691 296.523 219.691C299.912 219.691 303.029 218.545 305.5 216.624C302.121 213.997 299.952 209.921 299.952 205.346Z" fill="#EB001B"/>
<path d="M329 205.346C329 213.269 322.498 219.691 314.477 219.691C311.088 219.691 307.971 218.545 305.5 216.624C308.878 213.997 311.048 209.921 311.048 205.346C311.048 200.77 308.878 196.694 305.5 194.067C307.971 192.146 311.088 191 314.477 191C322.498 191 329 197.423 329 205.346Z" fill="#F79E1B"/>
<path d="M14.6162 18H12.5068L9.61523 8.68359L6.72363 18H4.61426L0.325195 4.81641H2.75977L5.66016 14.1768L8.56055 4.81641H10.6699L13.5615 14.1504L16.4531 4.81641H18.8877L14.6162 18ZM27.1846 18H25.3037L25.1807 16.9189C24.8584 17.3174 24.457 17.6279 23.9766 17.8506C23.4961 18.0674 22.9629 18.1758 22.377 18.1758C21.7559 18.1758 21.2021 18.0557 20.7158 17.8154C20.2295 17.5693 19.8457 17.2354 19.5645 16.8135C19.2891 16.3916 19.1514 15.9111 19.1514 15.3721C19.1514 14.8037 19.3008 14.3057 19.5996 13.8779C19.9043 13.4443 20.3174 13.1045 20.8389 12.8584C21.3662 12.6123 21.9668 12.4893 22.6406 12.4893C23.0508 12.4893 23.4609 12.5361 23.8711 12.6299C24.2871 12.7236 24.6709 12.8555 25.0225 13.0254V12.7441C25.0225 12.3574 24.917 12.0234 24.7061 11.7422C24.4951 11.4609 24.2109 11.2441 23.8535 11.0918C23.4961 10.9336 23.0947 10.8545 22.6494 10.8545C22.2451 10.8545 21.8408 10.9248 21.4365 11.0654C21.0322 11.2002 20.6543 11.4023 20.3027 11.6719L19.6875 9.97559C20.25 9.66504 20.8242 9.43066 21.4102 9.27246C22.002 9.11426 22.5791 9.03516 23.1416 9.03516C23.9678 9.03516 24.6826 9.19922 25.2861 9.52734C25.8896 9.84961 26.3555 10.3125 26.6836 10.916C27.0176 11.5137 27.1846 12.2197 27.1846 13.0342V18ZM22.8252 16.4355C23.2061 16.4355 23.5576 16.3564 23.8799 16.1982C24.208 16.04 24.4746 15.8203 24.6797 15.5391C24.8906 15.252 25.002 14.9238 25.0137 14.5547V14.458C24.7383 14.2588 24.4277 14.1064 24.082 14.001C23.7363 13.8896 23.3877 13.834 23.0361 13.834C22.4971 13.834 22.0547 13.957 21.709 14.2031C21.3633 14.4434 21.1904 14.7598 21.1904 15.1523C21.1904 15.3926 21.2607 15.6123 21.4014 15.8115C21.542 16.0049 21.7354 16.1572 21.9814 16.2686C22.2334 16.3799 22.5146 16.4355 22.8252 16.4355ZM31.6582 18H29.3467V4.46484H31.6582V18ZM36.3164 18H34.0049V4.46484H36.3164V18ZM46.6348 16.9805C45.5391 17.7773 44.3408 18.1758 43.04 18.1758C42.0967 18.1758 41.25 17.9707 40.5 17.5605C39.75 17.1504 39.1553 16.5908 38.7158 15.8818C38.2822 15.167 38.0654 14.3643 38.0654 13.4736C38.0654 12.624 38.2617 11.8652 38.6543 11.1973C39.0527 10.5293 39.5947 10.002 40.2803 9.61523C40.9717 9.22852 41.751 9.03516 42.6182 9.03516C43.5205 9.03516 44.3115 9.24902 44.9912 9.67676C45.6768 10.0986 46.21 10.6875 46.5908 11.4434C46.9717 12.1934 47.1621 13.0664 47.1621 14.0625V14.3438H40.3945C40.5 14.7422 40.6846 15.0938 40.9482 15.3984C41.2178 15.7031 41.5518 15.9404 41.9502 16.1104C42.3486 16.2803 42.7969 16.3652 43.2949 16.3652C44.2324 16.3652 45.0996 16.0605 45.8965 15.4512L46.6348 16.9805ZM40.3066 13.0781H45.1582C45.1113 12.6387 44.9766 12.2549 44.7539 11.9268C44.5371 11.5986 44.2529 11.3438 43.9014 11.1621C43.5557 10.9746 43.166 10.8809 42.7324 10.8809C42.293 10.8809 41.9004 10.9746 41.5547 11.1621C41.209 11.3496 40.9277 11.6104 40.7109 11.9443C40.4941 12.2725 40.3594 12.6504 40.3066 13.0781ZM54.4395 17.7715C53.7949 18.041 53.1709 18.1758 52.5674 18.1758C51.9521 18.1758 51.4102 18.0439 50.9414 17.7803C50.4785 17.5166 50.1152 17.1504 49.8516 16.6816C49.5938 16.207 49.4648 15.6562 49.4648 15.0293V11.1445H47.9268V9.21094H49.5791V7.01367H51.627V9.21094H54.1318V11.1445H51.627V14.6338C51.627 15.1318 51.7617 15.5244 52.0312 15.8115C52.3066 16.0986 52.6494 16.2422 53.0596 16.2422C53.4229 16.2422 53.7832 16.1309 54.1406 15.9082L54.4395 17.7715Z" fill="#1B212D"/>
<g clip-path="url(#clip0_3210_373)">
<path d="M336.5 9.16666C335.487 9.16666 334.667 9.98708 334.667 11C334.667 12.0129 335.487 12.8333 336.5 12.8333C337.513 12.8333 338.333 12.0129 338.333 11C338.333 9.98708 337.513 9.16666 336.5 9.16666ZM349.5 9.16666C348.487 9.16666 347.667 9.98708 347.667 11C347.667 12.0129 348.487 12.8333 349.5 12.8333C350.513 12.8333 351.333 12.0129 351.333 11C351.333 9.98708 350.513 9.16666 349.5 9.16666ZM343 9.16666C341.987 9.16666 341.167 9.98708 341.167 11C341.167 12.0129 341.987 12.8333 343 12.8333C344.013 12.8333 344.833 12.0129 344.833 11C344.833 9.98708 344.013 9.16666 343 9.16666Z" fill="#929EAE"/>
</g>
<defs>
<linearGradient id="paint0_linear_3210_373" x1="7.52125" y1="47" x2="337.163" y2="188.675" gradientUnits="userSpaceOnUse">
<stop stop-color="#4A4A49"/>
<stop offset="1" stop-color="#20201F"/>
</linearGradient>
<clipPath id="clip0_3210_373">
<rect width="22" height="22" fill="white" transform="translate(332)"/>
</clipPath>
</defs>
</svg>
