<svg width="38" height="30" viewBox="0 0 38 30" fill="none" xmlns="http://www.w3.org/2000/svg">
<path d="M34.259 29.8716L3.79234 29.9999C1.77368 30.0116 0.105076 28.3547 0.0934075 26.336L6.12548e-05 3.82735C-0.0116073 1.80869 1.64533 0.140085 3.66399 0.128416L34.1306 6.12548e-05C36.1493 -0.0116073 37.8179 1.64533 37.8295 3.66399L37.9229 26.1727C37.9346 28.203 36.2776 29.8716 34.259 29.8716Z" fill="#B2AEA9"/>
<path d="M14.6565 25.9742C14.4931 25.9742 14.3414 25.8926 14.2597 25.7409C14.143 25.5308 14.2364 25.2625 14.4464 25.1458C15.0765 24.819 15.94 24.2006 16.4301 23.1504C17.0602 21.8086 16.8852 20.35 16.6168 20.2333C16.5468 20.1983 16.2901 20.3383 16.1267 20.42C15.7183 20.63 15.1465 20.9217 14.4814 20.7C13.828 20.4783 13.5129 19.9066 13.3613 19.6265C12.3578 17.8179 12.031 13.0921 13.0695 10.7351C13.4196 9.9533 13.8863 9.48655 14.4698 9.34653C15.0649 9.20651 15.5549 9.45155 15.9517 9.64992C16.2784 9.81327 16.4418 9.88328 16.5351 9.82494C16.9435 9.5799 16.9318 8.07466 16.3484 6.88446C15.8467 5.83429 14.9832 5.22753 14.3414 4.90081C14.1314 4.79579 14.038 4.52742 14.1547 4.31738C14.2597 4.10735 14.5281 4.01399 14.7381 4.13068C15.4966 4.51574 16.5234 5.23919 17.1302 6.51107C17.737 7.77127 18.0287 9.94162 16.9785 10.5834C16.4534 10.9101 15.94 10.6534 15.5433 10.4434C15.2399 10.2917 14.9482 10.14 14.6681 10.21C14.2831 10.3033 14.0147 10.7468 13.863 11.0968C12.9529 13.1505 13.2329 17.6195 14.1197 19.2065C14.2714 19.4748 14.4464 19.7666 14.7615 19.8716C15.0532 19.9766 15.3332 19.8482 15.73 19.6382C16.115 19.4398 16.5468 19.2181 17.0018 19.4398C17.982 19.9066 17.9237 22.0186 17.2236 23.5238C16.6285 24.8074 15.6016 25.5308 14.8432 25.9276C14.7965 25.9626 14.7265 25.9742 14.6565 25.9742Z" fill="#3D3D3C"/>
<path d="M13.2801 11.5287L5.39214 11.5637C5.1471 11.5637 4.94873 11.3654 4.94873 11.132C4.94873 10.8869 5.1471 10.6886 5.38047 10.6886L13.2684 10.6536C13.5135 10.6536 13.7118 10.8519 13.7118 11.0853C13.7235 11.3304 13.5251 11.5287 13.2801 11.5287Z" fill="#3D3D3C"/>
<path d="M13.3145 19.4167L5.42657 19.4517C5.18153 19.4517 4.98315 19.2534 4.98315 19.02C4.98315 18.775 5.18152 18.5766 5.41489 18.5766L13.3028 18.5416C13.5479 18.5416 13.7462 18.74 13.7462 18.9733C13.7462 19.2067 13.5595 19.4167 13.3145 19.4167Z" fill="#3D3D3C"/>
<path d="M23.8508 25.9396C23.7808 25.9396 23.7108 25.9279 23.6524 25.8929C22.894 25.5078 21.8671 24.7844 21.2604 23.5125C20.5369 22.0189 20.4669 19.9069 21.4471 19.4285C21.9021 19.2068 22.3339 19.4285 22.7189 19.6152C23.1157 19.8136 23.3957 19.9419 23.6874 19.8369C24.0142 19.7202 24.2008 19.3702 24.3175 19.1601C25.181 17.5615 25.426 13.0925 24.5042 11.0505C24.3409 10.7004 24.0725 10.257 23.6874 10.1753C23.4541 10.117 23.3024 9.88363 23.3607 9.65026C23.419 9.41689 23.6524 9.2652 23.8858 9.32354C24.4692 9.46357 24.9476 9.91863 25.2977 10.7004C26.3595 13.0458 26.0678 17.7716 25.0877 19.5919C24.936 19.8719 24.6209 20.4553 23.9791 20.677C23.314 20.9104 22.7423 20.6187 22.3339 20.4087C22.1705 20.327 21.9021 20.1986 21.8438 20.222C21.5754 20.3503 21.4237 21.8089 22.0655 23.1391C22.5672 24.1893 23.4307 24.7961 24.0725 25.1228C24.2825 25.2278 24.3759 25.4962 24.2592 25.7062C24.1658 25.8462 24.0142 25.9396 23.8508 25.9396Z" fill="#3D3D3C"/>
<path d="M22.0313 9.74339C21.8446 9.74339 21.6813 9.62671 21.6112 9.44002C20.6661 6.62789 22.8481 4.44587 23.5599 4.08414C23.7699 3.96746 24.0383 4.06081 24.155 4.27084C24.2717 4.48088 24.1783 4.74925 23.9683 4.86593C23.6532 5.02929 21.6463 6.76791 22.4514 9.15996C22.5331 9.39334 22.4047 9.63838 22.1713 9.72006C22.1247 9.73173 22.078 9.74339 22.0313 9.74339Z" fill="#3D3D3C"/>
<path d="M32.9883 11.4471L25.1004 11.4821C24.8554 11.4821 24.657 11.2838 24.657 11.0504C24.657 10.8053 24.8554 10.607 25.0887 10.607L32.9767 10.572C33.2217 10.572 33.4201 10.7703 33.4201 11.0037C33.4317 11.2487 33.2334 11.4471 32.9883 11.4471Z" fill="#3D3D3C"/>
<path d="M33.0228 19.3348L25.1348 19.3698C24.8898 19.3698 24.6914 19.1715 24.6914 18.9381C24.6914 18.6931 24.8898 18.4947 25.1231 18.4947L33.0111 18.4597C33.2561 18.4597 33.4545 18.6581 33.4545 18.8914C33.4662 19.1365 33.2678 19.3348 33.0228 19.3348Z" fill="#3D3D3C"/>
</svg>
