<svg width="42" height="43" viewBox="0 0 42 43" fill="none" xmlns="http://www.w3.org/2000/svg">
<circle cx="21" cy="21.5" r="21" fill="#4E5257"/>
<path d="M29.3335 20.641V22.3577C29.3335 22.816 28.9668 23.191 28.5001 23.2077H26.8668C25.9668 23.2077 25.1418 22.5493 25.0668 21.6493C25.0168 21.1243 25.2168 20.6327 25.5668 20.291C25.8751 19.9743 26.3001 19.791 26.7668 19.791H28.5001C28.9668 19.8077 29.3335 20.1827 29.3335 20.641Z" fill="#C8EE44"/>
<path d="M28.0583 24.4583H26.8666C25.2833 24.4583 23.95 23.2667 23.8166 21.75C23.7416 20.8833 24.0583 20.0167 24.6916 19.4C25.225 18.85 25.9666 18.5417 26.7666 18.5417H28.0583C28.3 18.5417 28.5 18.3417 28.475 18.1C28.2916 16.075 26.95 14.6917 24.9583 14.4583C24.7583 14.425 24.55 14.4167 24.3333 14.4167H16.8333C16.6 14.4167 16.375 14.4333 16.1583 14.4667C14.0333 14.7333 12.6666 16.3167 12.6666 18.5833V24.4167C12.6666 26.7167 14.5333 28.5833 16.8333 28.5833H24.3333C26.6666 28.5833 28.275 27.125 28.475 24.9C28.5 24.6583 28.3 24.4583 28.0583 24.4583ZM21.8333 19.625H16.8333C16.4916 19.625 16.2083 19.3417 16.2083 19C16.2083 18.6583 16.4916 18.375 16.8333 18.375H21.8333C22.175 18.375 22.4583 18.6583 22.4583 19C22.4583 19.3417 22.175 19.625 21.8333 19.625Z" fill="#C8EE44"/>
</svg>
