<svg width="20" height="20" viewBox="0 0 20 20" fill="none" xmlns="http://www.w3.org/2000/svg">
<path d="M14.1666 2.02472H5.83329C3.33329 2.02472 1.66663 3.69139 1.66663 6.19139V11.1914C1.66663 13.6914 3.33329 15.3581 5.83329 15.3581V17.1331C5.83329 17.7997 6.57496 18.1997 7.12496 17.8247L10.8333 15.3581H14.1666C16.6666 15.3581 18.3333 13.6914 18.3333 11.1914V6.19139C18.3333 3.69139 16.6666 2.02472 14.1666 2.02472ZM9.99996 12.1664C9.64996 12.1664 9.37496 11.8831 9.37496 11.5414C9.37496 11.1997 9.64996 10.9164 9.99996 10.9164C10.35 10.9164 10.625 11.1997 10.625 11.5414C10.625 11.8831 10.35 12.1664 9.99996 12.1664ZM11.05 8.70806C10.725 8.92473 10.625 9.0664 10.625 9.29973V9.47473C10.625 9.81639 10.3416 10.0997 9.99996 10.0997C9.65829 10.0997 9.37496 9.81639 9.37496 9.47473V9.29973C9.37496 8.33305 10.0833 7.85805 10.35 7.67472C10.6583 7.46639 10.7583 7.32472 10.7583 7.10805C10.7583 6.69139 10.4166 6.34972 9.99996 6.34972C9.58329 6.34972 9.24163 6.69139 9.24163 7.10805C9.24163 7.44972 8.95829 7.73305 8.61663 7.73305C8.27496 7.73305 7.99163 7.44972 7.99163 7.10805C7.99163 5.99972 8.89163 5.09972 9.99996 5.09972C11.1083 5.09972 12.0083 5.99972 12.0083 7.10805C12.0083 8.05805 11.3083 8.53306 11.05 8.70806Z" fill="#929EAE"/>
</svg>
