<svg width="20" height="20" viewBox="0 0 20 20" fill="none" xmlns="http://www.w3.org/2000/svg">
<path d="M6.56528 10.0584C6.56528 9.71669 6.84861 9.43335 7.19027 9.43335H11.757V2.38335C11.7486 1.98335 11.432 1.66669 11.032 1.66669C6.12361 1.66669 2.69861 5.09169 2.69861 10C2.69861 14.9084 6.12361 18.3334 11.032 18.3334C11.4236 18.3334 11.7486 18.0167 11.7486 17.6167V10.675H7.19027C6.84027 10.6834 6.56528 10.4 6.56528 10.0584Z" fill="#929EAE"/>
<path d="M17.118 9.61683L14.7513 7.2418C14.5097 7.00013 14.1097 7.00013 13.868 7.2418C13.6263 7.48346 13.6263 7.88346 13.868 8.12513L15.168 9.42516H11.7513V10.6752H15.1597L13.8597 11.9752C13.618 12.2168 13.618 12.6168 13.8597 12.8585C13.9847 12.9835 14.143 13.0418 14.3013 13.0418C14.4597 13.0418 14.618 12.9835 14.743 12.8585L17.1097 10.4835C17.3597 10.2502 17.3597 9.8585 17.118 9.61683Z" fill="#929EAE"/>
</svg>
