<svg width="30" height="30" viewBox="0 0 30 30" fill="none" xmlns="http://www.w3.org/2000/svg">
<path d="M22 0C26.4183 0 30 3.58172 30 8V22C30 26.4183 26.4183 30 22 30H8C4.0722 30 0.80675 27.1691 0.129883 23.4365C0.213515 23.6447 0.337384 23.7909 0.501953 23.875C0.836681 24.046 1.32523 24.1318 1.9668 24.1318C2.88722 22.7925 3.72347 21.4101 4.47656 19.9854C5.25759 18.5319 5.96977 17.2491 6.61133 16.1377C7.28072 14.9979 7.89432 14.1287 8.45215 13.5303C9.03788 12.9034 9.58192 12.7326 10.084 13.0176C10.2512 13.0176 10.4187 13.0601 10.5859 13.1455C10.781 13.2025 10.8788 13.3591 10.8789 13.6152C10.8789 13.7577 10.8366 13.9575 10.7529 14.2139C10.6693 14.4418 10.5715 14.6985 10.46 14.9834C10.3484 15.2683 10.2375 15.5394 10.126 15.7959C10.0145 16.0522 9.91666 16.2376 9.83301 16.3516C9.91628 16.3522 9.90243 16.5518 9.79102 16.9502C9.67945 17.3206 9.51215 17.805 9.28906 18.4033C9.09384 18.9732 8.88424 19.5859 8.66113 20.2412C8.43803 20.868 8.27076 21.4383 8.15918 21.9512C8.07551 22.4641 8.07554 22.849 8.15918 23.1055C8.27076 23.3335 8.54979 23.3335 8.99609 23.1055H9.41406C9.63721 23.077 9.77722 23.049 9.83301 23.0205C10.0562 22.536 10.3765 21.9226 10.7949 21.1816C11.2411 20.4409 11.7572 19.6717 12.3428 18.874C12.9563 18.0477 13.5982 17.2353 14.2676 16.4375C14.9649 15.6111 15.6621 14.8693 16.3594 14.2139C17.0846 13.5584 17.7968 13.0318 18.4941 12.6328C19.1913 12.234 19.8464 12.0342 20.46 12.0342C20.4599 12.8605 20.2926 13.6439 19.958 14.3848C19.6512 15.0972 19.2885 15.8245 18.8701 16.5654C18.4796 17.2778 18.1169 18.0332 17.7822 18.8311C17.4755 19.6003 17.3223 20.4409 17.3223 21.3525C17.1828 21.8939 17.1688 22.4072 17.2803 22.8916C17.3918 23.3476 17.5873 23.7614 17.8662 24.1318C18.1451 24.5022 18.4938 24.7869 18.9121 24.9863C19.3584 25.1858 19.847 25.2861 20.377 25.2861C20.8787 25.2861 21.269 25.2571 21.5479 25.2002C21.8546 25.1147 22.2871 24.9439 22.8447 24.6875C23.0958 24.5735 23.5148 24.3594 24.1006 24.0459C24.7142 23.7325 25.356 23.4189 26.0254 23.1055C26.6947 22.7635 27.3084 22.45 27.8662 22.165C28.4516 21.8518 28.8559 21.6239 29.0791 21.4814C29.3859 21.339 29.6096 21.1393 29.749 20.8828C29.9163 20.5979 30 20.2987 30 19.9854C29.219 19.9854 28.4796 20.1136 27.7822 20.3701C27.085 20.6266 26.3877 20.9112 25.6904 21.2246C25.0211 21.538 24.3379 21.8236 23.6406 22.0801C22.9434 22.3365 22.2178 22.4648 21.4648 22.4648C20.9906 22.2654 20.6552 21.9943 20.46 21.6523C20.2926 21.2819 20.2926 20.6829 20.46 19.8564C20.6552 19.0015 21.032 17.8188 21.5898 16.3086C22.1756 14.7982 22.9705 12.789 23.9746 10.2812C23.9746 9.85749 23.847 9.49898 23.5908 9.20605L23.3545 8.96387C23.0708 8.70215 22.7332 8.57129 22.3428 8.57129C21.8408 8.57137 21.1856 8.77114 20.377 9.16992C19.596 9.54035 18.7869 9.98223 17.9502 10.4951C17.1413 11.0081 16.3737 11.5212 15.6484 12.0342C14.9515 12.5184 14.4494 12.8601 14.1426 13.0596C14.1425 12.7748 14.1002 12.4473 14.0166 12.0771C13.933 11.6784 13.8079 11.3077 13.6406 10.9658C13.5012 10.5953 13.2916 10.2954 13.0127 10.0674C12.7617 9.81095 12.4403 9.68262 12.0498 9.68262C11.4642 9.68267 10.8786 9.79746 10.293 10.0254C9.73526 10.2533 9.2192 10.5235 8.74512 10.8369C8.46623 10.2956 8.08931 10.1674 7.61523 10.4521C7.16898 10.7086 6.65307 11.2219 6.06738 11.9912C5.5095 12.7322 4.90914 13.6446 4.26758 14.7275C3.65399 15.8103 3.06856 16.8793 2.51074 17.9336C1.95291 18.9879 1.45018 19.9565 1.00391 20.8398C0.572493 21.6663 0.244388 22.2391 0.0214844 22.5596C0.00870426 22.3747 9.60329e-09 22.1882 0 22V8C0 3.58172 3.58172 2.2549e-07 8 0H22ZM0.0214844 22.5596C0.0420177 22.8567 0.0777859 23.1492 0.129883 23.4365C0.0434711 23.2214 5.67017e-06 22.9403 0 22.5928C0.00744559 22.5823 0.0137904 22.5706 0.0214844 22.5596Z" fill="#1B212D"/>
</svg>
