<svg width="20" height="20" viewBox="0 0 20 20" fill="none" xmlns="http://www.w3.org/2000/svg">
<path d="M12.375 3.29232V6.45898H11.125V3.29232C11.125 3.06732 10.925 2.95898 10.7917 2.95898C10.75 2.95898 10.7084 2.96732 10.6667 2.98398L4.05837 5.47565C3.61671 5.64232 3.33337 6.05898 3.33337 6.53398V7.09232C2.57504 7.65898 2.08337 8.56733 2.08337 9.59233V6.53398C2.08337 5.54232 2.69171 4.65898 3.61671 4.30898L10.2334 1.80898C10.4167 1.74232 10.6084 1.70898 10.7917 1.70898C11.625 1.70898 12.375 2.38398 12.375 3.29232ZM17.9173 12.0833V12.9167C17.9173 13.1417 17.7423 13.325 17.509 13.3333H16.2923C15.8506 13.3333 15.4506 13.0083 15.4173 12.575C15.3923 12.3167 15.4923 12.075 15.659 11.9083C15.809 11.75 16.0173 11.6667 16.2423 11.6667H17.5006C17.7423 11.675 17.9173 11.8583 17.9173 12.0833Z" fill="#929EAE"/>
<path d="M16.2334 10.7917H17.0834C17.5417 10.7917 17.9167 10.4167 17.9167 9.95834V9.59168C17.9167 7.86668 16.5084 6.45834 14.7834 6.45834H5.21671C4.50837 6.45834 3.85837 6.69168 3.33337 7.09168C2.57504 7.65834 2.08337 8.56668 2.08337 9.59168V15.2C2.08337 16.925 3.49171 18.3333 5.21671 18.3333H14.7834C16.5084 18.3333 17.9167 16.925 17.9167 15.2V15.0417C17.9167 14.5833 17.5417 14.2083 17.0834 14.2083H16.3584C15.5584 14.2083 14.7917 13.7167 14.5834 12.9417C14.4084 12.3083 14.6167 11.7 15.0334 11.2917C15.3417 10.975 15.7667 10.7917 16.2334 10.7917ZM11.6667 10.625H5.83337C5.49171 10.625 5.20837 10.3417 5.20837 10C5.20837 9.65834 5.49171 9.37501 5.83337 9.37501H11.6667C12.0084 9.37501 12.2917 9.65834 12.2917 10C12.2917 10.3417 12.0084 10.625 11.6667 10.625Z" fill="#929EAE"/>
</svg>
