<svg width="42" height="43" viewBox="0 0 42 43" fill="none" xmlns="http://www.w3.org/2000/svg">
<circle cx="21" cy="21.5" r="21" fill="#EBE8E8"/>
<path d="M15.1666 24C13.3249 24 11.8333 25.4917 11.8333 27.3333C11.8333 27.9583 12.0083 28.55 12.3166 29.05C12.8916 30.0167 13.9499 30.6667 15.1666 30.6667C16.3833 30.6667 17.4416 30.0167 18.0166 29.05C18.3249 28.55 18.4999 27.9583 18.4999 27.3333C18.4999 25.4917 17.0083 24 15.1666 24ZM16.4083 27.9417H15.7916V28.5917C15.7916 28.9333 15.5083 29.2167 15.1666 29.2167C14.8249 29.2167 14.5416 28.9333 14.5416 28.5917V27.9417H13.9249C13.5833 27.9417 13.2999 27.6583 13.2999 27.3167C13.2999 26.975 13.5833 26.6917 13.9249 26.6917H14.5416V26.1C14.5416 25.7583 14.8249 25.475 15.1666 25.475C15.5083 25.475 15.7916 25.7583 15.7916 26.1V26.6917H16.4083C16.7499 26.6917 17.0333 26.975 17.0333 27.3167C17.0333 27.6583 16.7583 27.9417 16.4083 27.9417ZM28.9166 21.9167H26.8333C25.9166 21.9167 25.1666 22.6667 25.1666 23.5833C25.1666 24.5 25.9166 25.25 26.8333 25.25H28.9166C29.1499 25.25 29.3333 25.0667 29.3333 24.8333V22.3333C29.3333 22.1 29.1499 21.9167 28.9166 21.9167ZM24.7743 16.0001C25.0243 16.2418 24.8159 16.6168 24.4659 16.6168L17.5659 16.6085C17.1659 16.6085 16.9659 16.1251 17.2493 15.8418L18.7076 14.3751C19.9409 13.1501 21.9326 13.1501 23.1659 14.3751L24.7409 15.9668C24.7493 15.9751 24.7659 15.9918 24.7743 16.0001Z" fill="#363A3F"/>
<path d="M29.2245 27.05C28.7162 28.7667 27.2495 29.8333 25.2495 29.8333H19.8328C19.5078 29.8333 19.2995 29.475 19.4328 29.175C19.6828 28.5917 19.8412 27.9333 19.8412 27.3333C19.8412 24.8083 17.7828 22.75 15.2578 22.75C14.6245 22.75 14.0078 22.8833 13.4411 23.1333C13.1328 23.2667 12.7578 23.0583 12.7578 22.725V21.5C12.7578 19.2333 14.1245 17.65 16.2495 17.3833C16.4578 17.35 16.6828 17.3333 16.9161 17.3333H25.2495C25.4662 17.3333 25.6745 17.3417 25.8745 17.375C27.5578 17.5667 28.7745 18.5917 29.2245 20.1167C29.3078 20.3917 29.1078 20.6667 28.8245 20.6667H26.9162C25.1078 20.6667 23.6745 22.3167 24.0662 24.1917C24.3412 25.5583 25.6078 26.5 26.9995 26.5H28.8245C29.1162 26.5 29.3078 26.7833 29.2245 27.05Z" fill="#363A3F"/>
</svg>
