<svg width="20" height="20" viewBox="0 0 20 20" fill="none" xmlns="http://www.w3.org/2000/svg">
<path d="M13.4916 1.66667H6.50829C3.47496 1.66667 1.66663 3.47501 1.66663 6.50834V13.4833C1.66663 16.525 3.47496 18.3333 6.50829 18.3333H13.4833C16.5166 18.3333 18.325 16.525 18.325 13.4917V6.50834C18.3333 3.47501 16.525 1.66667 13.4916 1.66667ZM14.3833 8.30001L12.4583 10.7833C12.2166 11.0917 11.875 11.2917 11.4833 11.3333C11.0916 11.3833 10.7083 11.275 10.4 11.0333L8.87496 9.83334C8.81663 9.78334 8.74996 9.78334 8.71663 9.79167C8.68329 9.79167 8.62496 9.80834 8.57496 9.87501L6.59163 12.45C6.46663 12.6083 6.28329 12.6917 6.09996 12.6917C5.96663 12.6917 5.83329 12.65 5.71663 12.5583C5.44163 12.35 5.39163 11.9583 5.59996 11.6833L7.58329 9.10834C7.82496 8.80001 8.16663 8.60001 8.55829 8.55001C8.94163 8.50001 9.33329 8.60834 9.64163 8.85001L11.1666 10.05C11.225 10.1 11.2833 10.1 11.325 10.0917C11.3583 10.0917 11.4166 10.075 11.4666 10.0083L13.3916 7.52501C13.6 7.25001 14 7.20001 14.2666 7.41667C14.5416 7.64167 14.5916 8.03334 14.3833 8.30001Z" fill="#929EAE"/>
</svg>
