<svg width="32" height="21" viewBox="0 0 32 21" fill="none" xmlns="http://www.w3.org/2000/svg">
<path d="M27.4306 11.7852H25.5139C25.6435 11.4479 25.9491 10.6322 26.4306 9.33789L26.4722 9.21484C26.5093 9.1237 26.5556 9.00521 26.6111 8.85938C26.6667 8.71354 26.7083 8.59505 26.7361 8.50391L26.9028 9.25586L27.4306 11.7852ZM7.375 10.8965L6.56944 6.86328C6.46759 6.37109 6.12037 6.125 5.52778 6.125H1.80556L1.77778 6.30273C4.65741 7.02279 6.52315 8.55404 7.375 10.8965ZM9.86111 6.125L7.61111 12.1133L7.375 10.8965C7.13426 10.2585 6.74074 9.66829 6.19444 9.12598C5.64815 8.58366 5.04167 8.18034 4.375 7.91602L6.25 14.8887H8.68056L12.3056 6.125H9.86111ZM11.7917 14.9023H14.0972L15.5417 6.125H13.2361L11.7917 14.9023ZM22.4583 6.34375C21.8194 6.09766 21.1296 5.97461 20.3889 5.97461C19.25 5.97461 18.3194 6.24349 17.5972 6.78125C16.875 7.31901 16.5093 8.01628 16.5 8.87305C16.4907 9.80273 17.162 10.5957 18.5139 11.252C18.9583 11.4616 19.2685 11.6484 19.4444 11.8125C19.6204 11.9766 19.7083 12.1543 19.7083 12.3457C19.7083 12.6191 19.5694 12.8288 19.2917 12.9746C19.0139 13.1204 18.6944 13.1934 18.3333 13.1934C17.537 13.1934 16.8148 13.043 16.1667 12.7422L15.8611 12.5918L15.5417 14.5605C16.2269 14.8704 17.0833 15.0254 18.1111 15.0254C19.3148 15.0345 20.2801 14.7656 21.0069 14.2188C21.7338 13.6719 22.1065 12.9427 22.125 12.0312C22.125 11.0651 21.4769 10.2721 20.1806 9.65234C19.7269 9.42448 19.3981 9.23307 19.1944 9.07812C18.9907 8.92318 18.8889 8.75 18.8889 8.55859C18.8889 8.35807 19.0023 8.18262 19.2292 8.03223C19.456 7.88184 19.7824 7.80664 20.2083 7.80664C20.8565 7.79753 21.4306 7.9069 21.9306 8.13477L22.1389 8.24414L22.4583 6.34375ZM28.3611 6.125H26.5833C25.9815 6.125 25.5787 6.37109 25.375 6.86328L21.9583 14.9023H24.375L24.8611 13.5898H27.8056C27.8519 13.7904 27.9444 14.2279 28.0833 14.9023H30.2222L28.3611 6.125ZM32 1.75V19.25C32 19.724 31.8241 20.1341 31.4722 20.4805C31.1204 20.8268 30.7037 21 30.2222 21H1.77778C1.2963 21 0.87963 20.8268 0.527778 20.4805C0.175926 20.1341 0 19.724 0 19.25V1.75C0 1.27604 0.175926 0.865885 0.527778 0.519531C0.87963 0.173177 1.2963 0 1.77778 0H30.2222C30.7037 0 31.1204 0.173177 31.4722 0.519531C31.8241 0.865885 32 1.27604 32 1.75Z" fill="#1A1F71"/>
</svg>
